HIERARCHY
ROOT Hips
{
  OFFSET 0.0000 88.1582 0.0000
  CHANNELS 6 Xposition Yposition Zposition Yrotation Xrotation Zrotation
  JOINT Spine
  {
    OFFSET 0.0000 12.4674 0.0000
    CHANNELS 3 Yrotation Xrotation Zrotation
    JOINT Spine1
    {
      OFFSET 0.0000 12.2380 0.0000
      CHANNELS 3 Yrotation Xrotation Zrotation
      JOINT Spine2
      {
        OFFSET 0.0000 11.5142 0.0000
        CHANNELS 3 Yrotation Xrotation Zrotation
        JOINT LeftShoulder
        {
          OFFSET 6.6026 9.6620 0.0000
          CHANNELS 3 Yrotation Xrotation Zrotation
          JOINT LeftArm
          {
            OFFSET 0.0000 12.6234 0.0000
            CHANNELS 3 Yrotation Xrotation Zrotation
            JOINT LeftForeArm
            {
              OFFSET -0.0001 24.4780 0.0000
              CHANNELS 3 Yrotation Xrotation Zrotation
              JOINT LeftHand
              {
                OFFSET 0.0000 26.9540 0.0000
                CHANNELS 3 Yrotation Xrotation Zrotation
                JOINT LeftHandIndex1
                {
                  OFFSET -2.4222 7.6359 0.0974
                  CHANNELS 3 Yrotation Xrotation Zrotation
                  JOINT LeftHandIndex2
                  {
                    OFFSET 0.0000 4.3320 0.0000
                    CHANNELS 3 Yrotation Xrotation Zrotation
                    JOINT LeftHandIndex3
                    {
                      OFFSET 0.0000 2.6652 0.0000
                      CHANNELS 3 Yrotation Xrotation Zrotation
                      End Site
                      {
                        OFFSET 0.0000 1.3566 0.0000
                      }
                    }
                  }
                }
                JOINT LeftHandMiddle1
                {
                  OFFSET -0.5154 7.6951 0.0974
                  CHANNELS 3 Yrotation Xrotation Zrotation
                  JOINT LeftHandMiddle2
                  {
                    OFFSET 0.0000 4.4473 0.0000
                    CHANNELS 3 Yrotation Xrotation Zrotation
                    JOINT LeftHandMiddle3
                    {
                      OFFSET 0.0000 2.9333 0.0000
                      CHANNELS 3 Yrotation Xrotation Zrotation
                      End Site
                      {
                        OFFSET 0.0000 1.4991 0.0000
                      }
                    }
                  }
                }
                JOINT LeftHandPinky1
                {
                  OFFSET 2.9666 6.6373 0.0975
                  CHANNELS 3 Yrotation Xrotation Zrotation
                  JOINT LeftHandPinky2
                  {
                    OFFSET 0.0000 3.3612 0.0000
                    CHANNELS 3 Yrotation Xrotation Zrotation
                    JOINT LeftHandPinky3
                    {
                      OFFSET 0.0000 2.1128 0.0000
                      CHANNELS 3 Yrotation Xrotation Zrotation
                      End Site
                      {
                        OFFSET 0.0000 1.1205 0.0000
                      }
                    }
                  }
                }
                JOINT LeftHandRing1
                {
                  OFFSET 1.3623 7.3832 0.0975
                  CHANNELS 3 Yrotation Xrotation Zrotation
                  JOINT LeftHandRing2
                  {
                    OFFSET 0.0000 4.1539 0.0000
                    CHANNELS 3 Yrotation Xrotation Zrotation
                    JOINT LeftHandRing3
                    {
                      OFFSET 0.0000 2.6790 0.0000
                      CHANNELS 3 Yrotation Xrotation Zrotation
                      End Site
                      {
                        OFFSET 0.0000 1.3500 0.0000
                      }
                    }
                  }
                }
                JOINT LeftHandThumb1
                {
                  OFFSET -2.6352 1.9662 0.0890
                  CHANNELS 3 Yrotation Xrotation Zrotation
                  JOINT LeftHandThumb2
                  {
                    OFFSET 0.0000 3.7470 0.0000
                    CHANNELS 3 Yrotation Xrotation Zrotation
                    JOINT LeftHandThumb3
                    {
                      OFFSET 0.0000 2.8440 0.0000
                      CHANNELS 3 Yrotation Xrotation Zrotation
                      End Site
                      {
                        OFFSET 0.0000 1.7295 0.0000
                      }
                    }
                  }
                }
              }
            }
          }
        }
        JOINT Neck
        {
          OFFSET 0.0000 16.9498 0.0000
          CHANNELS 3 Yrotation Xrotation Zrotation
          JOINT Head
          {
            OFFSET 0.0000 10.3509 0.0000
            CHANNELS 3 Yrotation Xrotation Zrotation
            End Site
            {
              OFFSET 0.0000 8.0220 0.0000
            }
          }
        }
        JOINT RightShoulder
        {
          OFFSET -6.6026 9.6620 0.0000
          CHANNELS 3 Yrotation Xrotation Zrotation
          JOINT RightArm
          {
            OFFSET 0.0000 12.6234 0.0000
            CHANNELS 3 Yrotation Xrotation Zrotation
            JOINT RightForeArm
            {
              OFFSET 0.0000 24.4781 0.0000
              CHANNELS 3 Yrotation Xrotation Zrotation
              JOINT RightHand
              {
                OFFSET -0.0001 26.9540 0.0000
                CHANNELS 3 Yrotation Xrotation Zrotation
                JOINT RightHandIndex1
                {
                  OFFSET 2.4222 7.6360 0.0974
                  CHANNELS 3 Yrotation Xrotation Zrotation
                  JOINT RightHandIndex2
                  {
                    OFFSET 0.0000 4.3321 -0.0001
                    CHANNELS 3 Yrotation Xrotation Zrotation
                    JOINT RightHandIndex3
                    {
                      OFFSET 0.0000 2.6652 0.0000
                      CHANNELS 3 Yrotation Xrotation Zrotation
                      End Site
                      {
                        OFFSET 0.0000 1.3566 0.0000
                      }
                    }
                  }
                }
                JOINT RightHandMiddle1
                {
                  OFFSET 0.5154 7.6952 0.0974
                  CHANNELS 3 Yrotation Xrotation Zrotation
                  JOINT RightHandMiddle2
                  {
                    OFFSET 0.0000 4.4473 -0.0001
                    CHANNELS 3 Yrotation Xrotation Zrotation
                    JOINT RightHandMiddle3
                    {
                      OFFSET 0.0000 2.9333 0.0000
                      CHANNELS 3 Yrotation Xrotation Zrotation
                      End Site
                      {
                        OFFSET 0.0000 1.4991 0.0000
                      }
                    }
                  }
                }
                JOINT RightHandPinky1
                {
                  OFFSET -2.9667 6.6374 0.0974
                  CHANNELS 3 Yrotation Xrotation Zrotation
                  JOINT RightHandPinky2
                  {
                    OFFSET 0.0000 3.3613 -0.0001
                    CHANNELS 3 Yrotation Xrotation Zrotation
                    JOINT RightHandPinky3
                    {
                      OFFSET 0.0000 2.1128 0.0000
                      CHANNELS 3 Yrotation Xrotation Zrotation
                      End Site
                      {
                        OFFSET 0.0000 1.1205 0.0000
                      }
                    }
                  }
                }
                JOINT RightHandRing1
                {
                  OFFSET -1.3624 7.3833 0.0974
                  CHANNELS 3 Yrotation Xrotation Zrotation
                  JOINT RightHandRing2
                  {
                    OFFSET 0.0000 4.1540 -0.0001
                    CHANNELS 3 Yrotation Xrotation Zrotation
                    JOINT RightHandRing3
                    {
                      OFFSET 0.0000 2.6790 0.0000
                      CHANNELS 3 Yrotation Xrotation Zrotation
                      End Site
                      {
                        OFFSET 0.0000 1.3500 0.0000
                      }
                    }
                  }
                }
                JOINT RightHandThumb1
                {
                  OFFSET 2.6352 1.9663 0.0889
                  CHANNELS 3 Yrotation Xrotation Zrotation
                  JOINT RightHandThumb2
                  {
                    OFFSET 0.0000 3.7470 -0.0001
                    CHANNELS 3 Yrotation Xrotation Zrotation
                    JOINT RightHandThumb3
                    {
                      OFFSET 0.0000 2.8440 -0.0001
                      CHANNELS 3 Yrotation Xrotation Zrotation
                      End Site
                      {
                        OFFSET 0.0000 1.7295 0.0000
                      }
                    }
                  }
                }
              }
            }
          }
        }
      }
    }
  }
  JOINT LeftUpLeg
  {
    OFFSET 7.5966 0.0000 0.0000
    CHANNELS 3 Yrotation Xrotation Zrotation
    JOINT LeftLeg
    {
      OFFSET 0.0000 40.5152 0.0000
      CHANNELS 3 Yrotation Xrotation Zrotation
      JOINT LeftFoot
      {
        OFFSET 0.0000 40.6090 0.0000
        CHANNELS 3 Yrotation Xrotation Zrotation
        JOINT LeftToeBase
        {
          OFFSET 0.0000 13.6671 0.0000
          CHANNELS 3 Yrotation Xrotation Zrotation
          End Site
          {
            OFFSET 0.0000 3.5000 0.0000
          }
        }
      }
    }
  }
  JOINT RightUpLeg
  {
    OFFSET -7.5966 0.0000 0.0000
    CHANNELS 3 Yrotation Xrotation Zrotation
    JOINT RightLeg
    {
      OFFSET 0.0000 40.5153 0.0000
      CHANNELS 3 Yrotation Xrotation Zrotation
      JOINT RightFoot
      {
        OFFSET 0.0000 40.6090 0.0000
        CHANNELS 3 Yrotation Xrotation Zrotation
        JOINT RightToeBase
        {
          OFFSET 0.0000 13.6671 0.0000
          CHANNELS 3 Yrotation Xrotation Zrotation
          End Site
          {
            OFFSET 0.0000 3.5000 0.0000
          }
        }
      }
    }
  }
}
MOTION
Frames: 4
Frame Time: 0.033333
0.0000 88.1582 0.0000 0.0000 0.0000 0.0000 0.0000 0.0000 0.0000 0.0000 0.0000 0.0000 0.0000 0.0000 0.0000 -270.0000 90.0000 0.0000 0.0000 0.0000 0.0000 0.0000 0.0000 0.0000 0.0000 0.0000 0.0000 0.0000 0.0000 0.0001 0.0000 0.0000 0.0000 0.0000 -0.0013 -0.0008 0.0000 -0.0004 0.0001 0.0000 0.0000 0.0000 0.0000 0.0000 0.0000 0.0000 0.0003 0.0000 0.0000 -0.0007 0.0003 0.0000 0.0004 -0.0006 0.0000 0.0000 0.0001 0.0000 0.0000 0.0000 0.0000 -0.0010 -0.0002 0.0000 0.0002 30.0001 -0.0001 0.0005 -29.9998 0.0000 0.0000 0.0000 0.0000 0.0000 0.0000 0.0000 0.0000 0.0000 270.0001 90.0000 0.0000 0.0000 0.0000 0.0000 0.0000 0.0000 0.0000 0.0000 0.0000 0.0000 0.0000 -0.0001 0.0001 0.0000 0.0000 0.0000 0.0000 -0.0006 0.0003 0.0000 -0.0001 0.0001 0.0000 0.0000 0.0000 0.0000 0.0000 0.0000 0.0000 0.0007 0.0001 0.0000 -0.0011 0.0001 0.0000 -0.0008 0.0003 0.0000 0.0001 0.0000 0.0000 0.0000 0.0000 0.0000 -0.0009 0.0000 0.0000 0.0002 -29.9997 -0.0001 -0.0002 29.9996 0.0000 0.0000 0.0000 0.0000 0.0000 180.0000 0.0000 0.0001 0.0826 -0.1744 64.6492 -0.1930 0.0000 25.3510 0.0000 0.0000 0.0000 180.0000 0.0000 0.0000 -0.0827 0.1745 64.6492 0.1931 0.0000 25.3508 -0.0001 
-2.2005 88.1391 -11.5544 -14.0901 1.8979 -1.5862 -0.6106 -0.8489 -0.7759 -0.6106 -0.8489 -0.7760 -0.6124 -0.8514 -0.7782 137.7478 84.3636 41.2981 76.6493 51.9808 105.2841 28.8456 5.7341 97.2802 62.4609 -68.0490 -9.9017 -11.2934 17.0825 -15.7148 0.0000 7.0092 0.0000 0.0000 4.6718 -0.0008 -32.0034 57.7590 -38.5606 0.0005 79.1922 0.0006 0.0002 53.2810 0.0003 -81.4101 47.1782 -75.5003 -0.0001 50.6685 0.0004 -0.0001 33.9042 -0.0006 -68.8556 54.5332 -70.8506 0.0001 67.2007 0.0001 0.0000 45.0932 -0.0001 42.5001 22.9901 49.6643 4.4718 -21.7043 -19.2817 -0.0164 -1.3712 1.3716 4.2107 0.3370 2.6020 4.2107 0.3370 2.6020 127.4463 83.3991 -133.4857 -35.3409 66.4634 -34.5331 -29.9960 18.6273 -77.2955 -7.5077 15.0628 -19.3826 2.5162 11.7233 36.3540 0.0000 44.6775 -0.0001 0.0000 29.8693 0.0002 5.2401 20.4347 44.8600 -0.0001 63.7155 -0.0002 0.0000 42.7265 -0.0001 52.4117 20.5650 76.8290 0.0000 31.3767 0.0001 -0.0001 20.9470 0.0002 24.6091 16.3958 60.8826 0.0000 48.2893 -0.0001 0.0000 32.2995 -0.0001 -42.4165 20.7079 -27.2922 7.3814 14.9324 31.8540 2.2360 15.6016 16.2145 4.7605 4.8716 -179.3981 0.0001 -0.0885 0.0828 -3.7246 70.6637 12.1425 0.0000 25.9522 0.0000 7.1268 -4.8744 -178.6207 0.0084 -13.4332 -0.0807 -7.5654 71.5316 -12.8658 0.0000 27.1794 -0.0001 
-2.1842 88.1404 -11.5492 -14.0796 1.8887 -1.5957 -0.6108 -0.8439 -0.7735 -0.6109 -0.8440 -0.7736 -0.6126 -0.8464 -0.7758 137.4722 84.3761 41.0160 76.5997 52.0721 105.0943 29.4090 5.6916 97.5049 63.3310 -68.1800 -10.7618 -11.3225 16.9998 -15.7213 0.0000 7.0000 0.0000 0.0000 4.6657 -0.0008 -32.0047 57.7540 -38.5544 0.0005 79.1895 0.0007 0.0002 53.2792 0.0003 -81.4206 47.1749 -75.5060 -0.0001 50.6654 0.0004 -0.0001 33.9021 -0.0006 -68.8525 54.5282 -70.8561 0.0001 67.2061 0.0001 0.0000 45.0969 -0.0001 42.4916 22.9968 49.6631 4.4756 -21.7137 -19.2793 -0.0165 -1.3758 1.3762 4.1988 0.3417 2.6270 4.1988 0.3417 2.6270 127.4016 83.3851 -133.5162 -35.3767 66.4551 -34.5594 -29.9758 18.6139 -77.3092 -7.5238 15.0678 -19.3738 2.5617 11.7095 36.3741 -0.0001 44.6208 -0.0002 0.0000 29.8311 0.0002 5.2249 20.4503 44.8561 -0.0002 63.7565 -0.0003 -0.0001 42.7544 -0.0001 52.4107 20.5795 76.8251 0.0000 31.3665 0.0001 -0.0001 20.9402 0.0002 24.6144 16.3816 60.8933 0.0000 48.2887 -0.0001 0.0000 32.2991 -0.0001 -42.4026 20.7124 -27.2925 7.3842 14.9294 31.8618 2.2366 15.6035 16.2167 4.7604 4.9251 -179.3992 0.0000 0.0000 0.0828 -3.6728 70.6195 12.1911 0.0000 25.9522 0.0000 7.1195 -4.8407 -178.6184 0.0081 -13.3898 -0.0807 -7.5127 71.5192 -12.8320 0.0000 27.1729 -0.0001 
-2.1714 88.1415 -11.5408 -14.0723 1.8848 -1.6070 -0.6071 -0.8384 -0.7723 -0.6072 -0.8385 -0.7724 -0.6089 -0.8409 -0.7747 137.0953 84.4091 40.6484 76.4313 52.2256 104.7228 30.2534 5.6208 97.7958 64.3793 -68.4482 -11.9385 -11.3263 16.9581 -15.7224 0.0000 7.0389 0.0000 0.0000 4.6916 -0.0008 -32.0103 57.7499 -38.5580 0.0005 79.1866 0.0007 0.0002 53.2771 0.0003 -81.4377 47.1694 -75.5308 -0.0001 50.6605 0.0004 -0.0001 33.8988 -0.0006 -68.8529 54.5239 -70.8539 0.0001 67.2090 0.0001 0.0001 45.0988 -0.0001 42.4851 23.0065 49.6601 4.4804 -21.7254 -19.2761 -0.0166 -1.3816 1.3820 4.1811 0.3365 2.6590 4.1811 0.3365 2.6590 127.3338 83.3718 -133.5618 -35.3594 66.4719 -34.5334 -29.9747 18.6114 -77.3185 -7.5158 15.0924 -19.3844 2.5698 11.7026 36.3758 -0.0001 44.6207 -0.0002 0.0000 29.8311 0.0002 5.2159 20.4623 44.8563 -0.0002 63.8045 -0.0003 -0.0001 42.7870 -0.0001 52.4193 20.5878 76.8293 0.0000 31.3578 0.0001 -0.0001 20.9344 0.0002 24.6052 16.3684 60.8910 0.0000 48.3455 -0.0001 0.0000 32.3373 -0.0001 -42.4281 20.7025 -27.3092 7.3966 14.9303 31.8929 2.2400 15.6148 16.2293 4.7420 4.8741 -179.3991 0.0001 -0.1152 0.0827 -3.6568 70.6800 12.2249 0.0000 25.9521 0.0000 7.1068 -4.8121 -178.6142 0.0092 -13.3499 -0.0799 -7.4832 71.5076 -12.8093 0.0000 27.1683 -0.0001 
